# xmcd CD database file
#
# Track frame offsets:
#	150
#	12607
#	28886
#	50268
#	65574
#	82382
#	102981
#	119283
#	136156
#	166760
#	181537
#	193921
#	210202
#	229612
#	249258
#	282329
#
# Disc length: 4016 seconds
#
# Revision: 0
# Processed by: cddbd v1.5.1PL0 Copyright (c) Steve Scherf et al.
# Submitted via: CDex 1.60beta1
#
DISCID=d90fae10
DTITLE=Various Artist - Clifford's Picks
DYEAR=1900
DGENRE=Blues
TTITLE0=Too Sorry - Doyle Bramhall
TTITLE1=Chain Of Love - Toni Price
TTITLE2=You Gonna Make Me Cry - Miss Lavelle White
TTITLE3=If I Chould Lose You - Kim Wilson
TTITLE4=Gone Blind - Sue Foley
TTITLE5=Way Down South - Matt Murphy
TTITLE6=Hey Little Girl - ZuZu Bollin
TTITLE7=Irene - Lazy Lester
TTITLE8=Call It Stormy Monday - James Cotton
TTITLE9=I'm A Good Woman - Barbara Lynn
TTITLE10=She Put The Hurt On Me - Doug Sahm
TTITLE11=I Idolize You - Marcia Ball, Lou Ann Barton, And Angela Strehli
TTITLE12=Big Town Playboy - Eddie Taylor
TTITLE13=Having Fun - Memphis Slim
TTITLE14=Ida B - Pinetop Perkins
TTITLE15=Thinkg I Used To Do - Earl King
EXTD=
EXTT0=
EXTT1=
EXTT2=
EXTT3=
EXTT4=
EXTT5=
EXTT6=
EXTT7=
EXTT8=
EXTT9=
EXTT10=
EXTT11=
EXTT12=
EXTT13=
EXTT14=
EXTT15=
PLAYORDER=
